<?xml version="1.0" encoding="UTF-8"?>
<!DOCTYPE svg PUBLIC "-//W3C//DTD SVG 1.1//EN" "http://www.w3.org/Graphics/SVG/1.1/DTD/svg11.dtd">
<svg version="1.1" xmlns="http://www.w3.org/2000/svg" xmlns:xlink="http://www.w3.org/1999/xlink" x="0" y="0" width="512" height="512" viewBox="0, 0, 512, 512">
  <defs>
    <linearGradient id="Gradient_1" gradientUnits="userSpaceOnUse" x1="0.5" y1="256.5" x2="512.5" y2="256.5">
      <stop offset="0" stop-color="#FFFFFF"/>
      <stop offset="1" stop-color="#FFBB00"/>
    </linearGradient>
    <linearGradient id="Gradient_2" gradientUnits="userSpaceOnUse" x1="256.5" y1="512.5" x2="256.5" y2="0.5">
      <stop offset="0.085" stop-color="#000000"/>
      <stop offset="0.642" stop-color="#848484" stop-opacity="0"/>
      <stop offset="1" stop-color="#FFFFFF"/>
    </linearGradient>
    <radialGradient id="Gradient_3" gradientUnits="userSpaceOnUse" cx="401" cy="19.5" r="400.004">
      <stop offset="0.412" stop-color="#FFBE00"/>
      <stop offset="1" stop-color="#FFBB00" stop-opacity="0"/>
    </radialGradient>
  </defs>
  <g id="Saturation">
    <g>
      <path d="M0.5,0.5 L512.5,0.5 L512.5,512.5 L0.5,512.5 L0.5,0.5 z" fill="url(#Gradient_1)"/>
      <path d="M0.5,0.5 L512.5,0.5 L512.5,512.5 L0.5,512.5 L0.5,0.5 z" fill-opacity="0" stroke="#000000" stroke-width="0.25"/>
    </g>
  </g>
  <g id="Value">
    <g>
      <path d="M0.5,0.5 L512.5,0.5 L512.5,512.5 L0.5,512.5 L0.5,0.5 z" fill="url(#Gradient_2)"/>
      <path d="M0.5,0.5 L512.5,0.5 L512.5,512.5 L0.5,512.5 L0.5,0.5 z" fill-opacity="0" stroke="#000000" stroke-width="0.25"/>
    </g>
  </g>
  <g id="Layer_3">
    <g>
      <path d="M0.5,-380.5 L801.5,-380.5 L801.5,419.5 L0.5,419.5 L0.5,-380.5 z" fill="url(#Gradient_3)"/>
      <path d="M0.5,-380.5 L801.5,-380.5 L801.5,419.5 L0.5,419.5 L0.5,-380.5 z" fill-opacity="0" stroke="#000000" stroke-width="0.25"/>
    </g>
  </g>
</svg>
